<svg width="175" height="440" viewBox="0 0 175 440" fill="none" xmlns="http://www.w3.org/2000/svg">
<g opacity="0.1">
<path d="M173.048 26.8528C180.087 26.8528 185.793 21.147 185.793 14.1085C185.793 7.07002 180.087 1.3642 173.048 1.3642C166.01 1.3642 160.304 7.07002 160.304 14.1085C160.304 21.147 166.01 26.8528 173.048 26.8528Z" fill="#FFE031"/>
<path d="M173.048 95.672C180.087 95.672 185.793 89.9661 185.793 82.9277C185.793 75.8892 180.087 70.1833 173.048 70.1833C166.01 70.1833 160.304 75.8892 160.304 82.9277C160.304 89.9661 166.01 95.672 173.048 95.672Z" stroke="#FFE031" stroke-miterlimit="10"/>
<path d="M173.048 164.491C180.087 164.491 185.793 158.785 185.793 151.747C185.793 144.708 180.087 139.003 173.048 139.003C166.01 139.003 160.304 144.708 160.304 151.747C160.304 158.785 166.01 164.491 173.048 164.491Z" fill="#FFE031"/>
<path d="M173.048 233.311C180.087 233.311 185.793 227.605 185.793 220.566C185.793 213.528 180.087 207.822 173.048 207.822C166.01 207.822 160.304 213.528 160.304 220.566C160.304 227.605 166.01 233.311 173.048 233.311Z" fill="#FFE031"/>
<path d="M173.048 302.13C180.087 302.13 185.793 296.424 185.793 289.386C185.793 282.347 180.087 276.641 173.048 276.641C166.01 276.641 160.304 282.347 160.304 289.386C160.304 296.424 166.01 302.13 173.048 302.13Z" fill="#FFE031"/>
<path d="M173.048 370.949C180.087 370.949 185.793 365.243 185.793 358.205C185.793 351.166 180.087 345.46 173.048 345.46C166.01 345.46 160.304 351.166 160.304 358.205C160.304 365.243 166.01 370.949 173.048 370.949Z" stroke="#FFE031" stroke-miterlimit="10"/>
<path d="M173.048 439.768C180.087 439.768 185.793 434.062 185.793 427.024C185.793 419.985 180.087 414.28 173.048 414.28C166.01 414.28 160.304 419.985 160.304 427.024C160.304 434.062 166.01 439.768 173.048 439.768Z" fill="#FFE031"/>
<path d="M120.159 26.8528C127.198 26.8528 132.903 21.147 132.903 14.1085C132.903 7.07002 127.198 1.3642 120.159 1.3642C113.121 1.3642 107.415 7.07002 107.415 14.1085C107.415 21.147 113.121 26.8528 120.159 26.8528Z" fill="#FFE031"/>
<path d="M120.159 95.672C127.198 95.672 132.903 89.9661 132.903 82.9277C132.903 75.8892 127.198 70.1833 120.159 70.1833C113.121 70.1833 107.415 75.8892 107.415 82.9277C107.415 89.9661 113.121 95.672 120.159 95.672Z" fill="#FFE031"/>
<path d="M120.159 164.491C127.198 164.491 132.903 158.785 132.903 151.747C132.903 144.708 127.198 139.003 120.159 139.003C113.121 139.003 107.415 144.708 107.415 151.747C107.415 158.785 113.121 164.491 120.159 164.491Z" fill="#FFE031"/>
<path d="M120.159 233.311C127.198 233.311 132.903 227.605 132.903 220.566C132.903 213.528 127.198 207.822 120.159 207.822C113.121 207.822 107.415 213.528 107.415 220.566C107.415 227.605 113.121 233.311 120.159 233.311Z" fill="#FFE031"/>
<path d="M120.159 302.13C127.198 302.13 132.903 296.424 132.903 289.386C132.903 282.347 127.198 276.641 120.159 276.641C113.121 276.641 107.415 282.347 107.415 289.386C107.415 296.424 113.121 302.13 120.159 302.13Z" fill="#1D262D"/>
<path d="M120.159 370.949C127.198 370.949 132.903 365.243 132.903 358.205C132.903 351.166 127.198 345.46 120.159 345.46C113.121 345.46 107.415 351.166 107.415 358.205C107.415 365.243 113.121 370.949 120.159 370.949Z" fill="#FFE031"/>
<path d="M120.159 439.768C127.198 439.768 132.903 434.062 132.903 427.024C132.903 419.985 127.198 414.28 120.159 414.28C113.121 414.28 107.415 419.985 107.415 427.024C107.415 434.062 113.121 439.768 120.159 439.768Z" fill="#FFE031"/>
<path d="M66.9516 26.8528C73.9901 26.8528 79.6959 21.147 79.6959 14.1085C79.6959 7.07002 73.9901 1.3642 66.9516 1.3642C59.9131 1.3642 54.2073 7.07002 54.2073 14.1085C54.2073 21.147 59.9131 26.8528 66.9516 26.8528Z" fill="#FFE031"/>
<path d="M66.9516 95.672C73.9901 95.672 79.6959 89.9661 79.6959 82.9277C79.6959 75.8892 73.9901 70.1833 66.9516 70.1833C59.9131 70.1833 54.2073 75.8892 54.2073 82.9277C54.2073 89.9661 59.9131 95.672 66.9516 95.672Z" fill="#1D262D"/>
<path d="M66.9516 164.491C73.9901 164.491 79.6959 158.785 79.6959 151.747C79.6959 144.708 73.9901 139.003 66.9516 139.003C59.9131 139.003 54.2073 144.708 54.2073 151.747C54.2073 158.785 59.9131 164.491 66.9516 164.491Z" fill="#FFE031"/>
<path d="M66.9516 233.311C73.9901 233.311 79.6959 227.605 79.6959 220.566C79.6959 213.528 73.9901 207.822 66.9516 207.822C59.9131 207.822 54.2073 213.528 54.2073 220.566C54.2073 227.605 59.9131 233.311 66.9516 233.311Z" stroke="#FFE031" stroke-miterlimit="10"/>
<path d="M66.9516 302.13C73.9901 302.13 79.6959 296.424 79.6959 289.386C79.6959 282.347 73.9901 276.641 66.9516 276.641C59.9131 276.641 54.2073 282.347 54.2073 289.386C54.2073 296.424 59.9131 302.13 66.9516 302.13Z" fill="#FFE031"/>
<path d="M66.9516 370.949C73.9901 370.949 79.6959 365.243 79.6959 358.205C79.6959 351.166 73.9901 345.46 66.9516 345.46C59.9131 345.46 54.2073 351.166 54.2073 358.205C54.2073 365.243 59.9131 370.949 66.9516 370.949Z" fill="#FFE031"/>
<path d="M66.9516 439.768C73.9901 439.768 79.6959 434.062 79.6959 427.024C79.6959 419.985 73.9901 414.28 66.9516 414.28C59.9131 414.28 54.2073 419.985 54.2073 427.024C54.2073 434.062 59.9131 439.768 66.9516 439.768Z" fill="#FFE031"/>
<path d="M13.7443 26.8528C20.7828 26.8528 26.4886 21.147 26.4886 14.1085C26.4886 7.07002 20.7828 1.3642 13.7443 1.3642C6.70582 1.3642 1 7.07002 1 14.1085C1 21.147 6.70582 26.8528 13.7443 26.8528Z" stroke="#FFE031" stroke-miterlimit="10"/>
<path d="M13.7443 95.672C20.7828 95.672 26.4886 89.9661 26.4886 82.9277C26.4886 75.8892 20.7828 70.1833 13.7443 70.1833C6.70582 70.1833 1 75.8892 1 82.9277C1 89.9661 6.70582 95.672 13.7443 95.672Z" fill="#FFE031"/>
<path d="M13.7443 164.491C20.7828 164.491 26.4886 158.785 26.4886 151.747C26.4886 144.708 20.7828 139.003 13.7443 139.003C6.70582 139.003 1 144.708 1 151.747C1 158.785 6.70582 164.491 13.7443 164.491Z" fill="#FFE031"/>
<path d="M13.7443 233.311C20.7828 233.311 26.4886 227.605 26.4886 220.566C26.4886 213.528 20.7828 207.822 13.7443 207.822C6.70582 207.822 1 213.528 1 220.566C1 227.605 6.70582 233.311 13.7443 233.311Z" fill="#FFE031"/>
<path d="M13.7443 302.13C20.7828 302.13 26.4886 296.424 26.4886 289.386C26.4886 282.347 20.7828 276.641 13.7443 276.641C6.70582 276.641 1 282.347 1 289.386C1 296.424 6.70582 302.13 13.7443 302.13Z" fill="#FFE031"/>
<path d="M13.7443 370.949C20.7828 370.949 26.4886 365.243 26.4886 358.205C26.4886 351.166 20.7828 345.46 13.7443 345.46C6.70582 345.46 1 351.166 1 358.205C1 365.243 6.70582 370.949 13.7443 370.949Z" fill="#FFE031"/>
<path d="M13.7443 439.768C20.7828 439.768 26.4886 434.062 26.4886 427.024C26.4886 419.985 20.7828 414.28 13.7443 414.28C6.70582 414.28 1 419.985 1 427.024C1 434.062 6.70582 439.768 13.7443 439.768Z" fill="#FFE031"/>
</g>
</svg>
