<svg width="363" height="589" viewBox="0 0 363 589" fill="none" xmlns="http://www.w3.org/2000/svg">
<g opacity="0.2">
<path d="M46.1515 396.35C34.2325 404.296 22.3135 405.786 10.3945 396.847C-1.52459 387.908 -2.51791 375.492 1.95174 360.593C-13.4437 364.07 -27.3492 363.573 -36.2885 350.164C-44.2345 338.742 -42.248 326.823 -34.302 315.897C-33.3087 314.904 -32.3155 313.91 -31.3222 312.917C-25.8593 308.944 -19.4032 304.971 -12.9471 306.461C-1.52465 308.944 -3.51116 303.481 -3.01453 295.038C-2.02127 283.616 -3.51119 279.146 -15.9269 281.133C-20.3965 281.63 -25.8594 277.657 -30.8257 275.67C-32.3156 274.18 -33.3088 273.187 -34.7986 271.697C-41.7514 260.275 -43.738 248.852 -35.2953 237.43C-26.356 225.014 -13.4437 223.524 2.4484 227.994C-1.52462 212.598 -1.02796 199.189 12.8776 189.753C24.3 182.304 35.7224 183.794 46.6482 191.74C47.6415 192.733 48.6347 193.726 49.628 194.72C52.1111 200.183 56.5807 206.142 56.0841 211.108C53.601 224.517 60.0572 222.034 69.4931 223.027C80.9155 224.021 81.4121 221.041 81.4121 211.108C81.4121 205.646 85.3852 200.183 87.8684 194.72C88.8616 193.726 89.8547 192.733 90.848 191.74C102.767 183.297 114.686 182.304 126.605 191.243C138.524 200.183 139.518 212.598 135.048 227.497C149.947 225.014 163.852 224.517 172.792 237.926C180.738 249.845 178.751 260.771 171.302 272.194C170.308 273.187 168.818 274.677 167.825 275.67C162.362 277.657 156.403 282.126 151.437 281.63C140.014 280.14 140.014 284.609 140.511 294.045C140.511 303.481 140.014 307.951 151.437 306.461C156.899 305.964 162.362 310.434 167.825 312.42C168.818 313.414 170.308 314.904 171.302 315.897C179.248 327.816 180.738 339.735 171.798 351.157C162.859 362.58 150.94 364.566 135.544 359.6C138.524 374.995 138.028 389.398 123.625 398.337C112.7 405.29 101.774 403.303 90.848 396.847C89.3581 395.357 87.8683 393.867 86.3784 392.377C80.9155 383.935 79.4256 374.995 80.9155 365.56C65.0234 363.573 52.1111 364.07 53.601 385.425C53.601 387.908 51.1179 390.888 49.628 393.371C48.1381 394.364 47.1448 395.357 46.1515 396.35ZM121.639 348.178C112.7 342.715 131.571 325.333 111.21 325.333C100.781 325.333 98.2974 328.809 98.2974 338.245C98.794 358.607 116.176 339.238 121.639 348.178ZM14.3674 348.178C19.8303 340.728 40.192 358.607 36.7157 333.775C33.7359 313.91 21.3202 329.802 14.3674 324.339C17.3472 333.279 14.3674 339.735 14.3674 348.178ZM122.632 240.409C98.7942 242.893 99.2907 242.893 98.7941 248.356C96.3109 267.724 111.21 261.268 122.632 264.248C118.659 255.805 121.142 248.355 122.632 240.409ZM13.8708 239.416C15.3606 248.355 15.8573 255.805 14.8641 264.248C21.3202 258.288 34.7291 273.187 36.7157 253.322C39.6954 229.484 19.3337 248.355 13.8708 239.416ZM58.5672 292.555C59.0639 297.522 55.091 304.971 65.5201 302.985C70.983 301.991 77.4391 305.964 76.9425 294.542C76.4459 287.092 75.9493 284.113 67.5066 284.609C61.0505 285.603 56.0841 284.609 58.5672 292.555Z" fill="#FFC263"/>
<path d="M48.635 195.216C47.6418 194.223 46.6486 193.229 45.6554 192.236C45.6554 191.243 45.6554 189.753 45.1587 188.76C39.1992 175.351 38.7025 162.438 51.1182 152.506C61.0507 144.56 72.9699 144.56 82.9024 152.506C95.3181 162.438 95.3181 174.854 89.3585 188.263C88.8619 189.256 88.8619 190.746 88.8619 191.739C87.8686 192.733 86.8753 193.726 85.8821 194.719C73.963 200.182 61.5473 200.182 48.635 195.216Z" fill="#FFC263"/>
<path d="M170.308 316.393C169.315 315.4 167.825 313.91 166.832 312.917C161.369 300.501 161.866 288.086 166.832 275.67C167.825 274.677 169.315 273.187 170.308 272.194C174.281 271.2 178.255 269.214 182.228 268.717C193.65 266.731 204.079 269.214 210.535 279.643C216.495 289.079 216.495 299.012 210.535 308.447C204.079 318.877 193.65 321.856 182.228 319.373C178.255 318.877 174.281 317.387 170.308 316.393Z" fill="#FFC263"/>
<path d="M85.882 392.874C87.3719 394.364 88.8619 395.853 90.3518 397.343C91.345 400.323 91.8417 403.303 92.8349 406.283C96.3113 418.698 94.3247 429.624 83.3989 437.073C73.4663 444.026 62.5406 444.026 52.6081 436.577C41.6823 428.631 40.1923 417.705 43.6687 405.289C44.662 402.31 45.6552 399.33 46.1518 396.847C47.1451 395.853 48.1384 394.86 49.1316 393.867C61.0507 387.907 73.4663 388.404 85.882 392.874Z" fill="#FFC263"/>
<path d="M214.011 374.499C214.508 388.405 202.092 400.324 188.187 400.324C175.274 399.827 163.852 388.405 163.355 375.492C162.859 361.587 175.274 349.668 189.18 349.668C202.092 349.668 213.515 361.587 214.011 374.499Z" fill="#FFC263"/>
<path d="M12.3812 414.228C12.8778 427.637 0.958698 440.053 -12.9469 440.053C-25.8592 440.053 -37.2816 428.631 -37.7782 415.718C-38.2749 402.309 -26.3558 389.894 -12.4502 389.894C-0.0345268 390.39 11.8845 401.316 12.3812 414.228Z" fill="#FFC263"/>
<path d="M187.194 238.919C173.289 237.925 162.363 225.013 163.356 211.604C164.846 198.692 176.765 187.766 189.678 188.759C203.583 189.753 214.509 202.665 213.516 216.074C212.522 228.986 200.107 239.415 187.194 238.919Z" fill="#FFC263"/>
<path d="M173.785 173.364C173.785 187.27 161.37 199.189 147.464 198.195C134.552 197.699 123.129 185.78 123.129 172.868C123.129 158.962 135.545 147.043 149.45 148.036C162.363 148.533 173.785 160.452 173.785 173.364Z" fill="#FFC263"/>
<path d="M-12.9468 148.036C0.462151 148.036 12.3812 160.452 11.8846 173.861C11.388 186.773 -0.531136 197.699 -13.4434 197.699C-26.8524 197.699 -38.7714 185.283 -38.2748 171.875C-37.2816 159.459 -25.3625 148.036 -12.9468 148.036Z" fill="#FFC263"/>
<path d="M173.784 414.725C173.784 428.134 161.865 440.55 147.96 440.053C135.047 439.557 123.625 428.134 123.625 415.222C123.625 401.317 135.544 389.397 149.45 389.894C161.865 390.391 173.288 401.813 173.784 414.725Z" fill="#FFC263"/>
<path d="M3.93872 453.959C5.92523 439.556 13.8714 432.107 28.2736 432.107C42.1791 432.107 52.1117 444.026 50.1251 457.435C48.1386 471.837 39.1993 478.79 25.2938 477.797C10.8916 477.3 4.43535 467.864 3.93872 453.959Z" fill="#FFC263"/>
<path d="M228.911 358.11C214.508 356.62 206.562 349.668 205.569 335.265C205.072 321.36 215.998 310.434 229.904 311.427C244.306 312.42 252.252 320.863 252.252 335.265C251.755 349.668 243.313 356.62 228.911 358.11Z" fill="#FFC263"/>
<path d="M131.572 455.448C130.579 469.354 123.129 478.293 108.727 478.79C94.325 479.286 85.8824 471.34 84.8892 456.938C83.8959 443.033 94.325 432.107 108.231 432.603C122.633 432.603 130.082 441.046 131.572 455.448Z" fill="#FFC263"/>
<path d="M228.911 277.16C214.508 275.67 206.562 268.221 206.066 253.819C205.569 239.913 216.991 229.484 230.897 230.477C245.299 231.967 253.245 240.41 252.749 254.812C251.755 269.214 242.816 276.167 228.911 277.16Z" fill="#FFC263"/>
<path d="M50.6213 132.145C49.1314 147.54 41.6819 155.983 26.783 155.486C12.3809 155.486 3.93819 146.547 4.43482 132.145C4.43482 117.743 13.3742 109.3 27.7764 109.796C42.6752 110.293 49.628 119.232 50.6213 132.145Z" fill="#FFC263"/>
<path d="M131.572 133.138C130.082 147.54 122.633 155.486 108.231 155.983C94.325 156.479 83.8959 145.554 84.8892 131.648C85.8824 117.246 94.325 109.3 108.727 109.796C123.129 110.293 130.579 119.232 131.572 133.138Z" fill="#FFC263"/>
<path d="M68.0031 517.031C55.5874 515.541 47.1446 509.085 46.648 496.172C46.1514 483.26 54.5941 475.314 67.0097 474.818C79.9221 474.321 87.868 482.764 88.3647 495.179C88.8613 508.092 80.9154 515.044 68.0031 517.031Z" fill="#FFC263"/>
<path d="M271.124 273.186C282.546 275.172 289.996 281.629 290.989 294.541C291.486 305.963 279.566 317.386 268.641 315.896C256.225 314.406 248.776 306.46 248.776 294.044C248.279 282.622 259.205 272.689 271.124 273.186Z" fill="#FFC263"/>
<path d="M67.5064 71.5563C79.922 73.0462 88.3646 79.5024 88.3646 92.4147C88.3646 105.327 80.4187 113.273 68.003 113.77C55.0907 114.266 47.1446 105.824 46.6479 93.4079C46.6479 80.4956 55.0907 73.5428 67.5064 71.5563Z" fill="#FFC263"/>
<path d="M210.039 455.945C208.053 468.361 201.1 476.804 188.188 476.307C175.772 475.81 167.329 467.864 167.826 454.952C168.323 442.536 176.269 434.094 189.181 434.59C202.093 435.087 208.549 443.53 210.039 455.945Z" fill="#FFC263"/>
<path d="M188.188 111.782C200.603 113.272 209.046 119.728 209.543 132.641C210.039 145.553 201.597 153.499 189.181 153.996C176.269 154.492 168.323 146.05 167.826 133.634C167.329 120.722 175.772 113.769 188.188 111.782Z" fill="#FFC263"/>
<path d="M229.407 194.719C216.991 193.229 208.548 186.773 208.052 173.861C208.052 160.948 215.998 153.002 228.414 152.506C241.326 152.009 249.272 160.452 249.768 172.868C250.265 185.78 241.823 192.733 229.407 194.719Z" fill="#FFC263"/>
<path d="M250.762 415.718C248.776 428.134 241.823 435.583 229.407 436.576C217.985 437.073 206.562 425.154 208.549 414.228C210.039 401.813 217.985 393.867 230.897 394.86C242.816 394.86 249.272 403.302 250.762 415.718Z" fill="#FFC263"/>
<path d="M270.13 194.223C282.546 195.713 289.499 202.169 288.505 214.585C288.009 227 280.063 233.457 267.647 232.463C256.225 231.967 249.768 224.517 250.265 213.095C250.265 200.679 257.714 194.72 270.13 194.223Z" fill="#FFC263"/>
<path d="M270.13 394.363C257.218 393.37 250.265 386.914 250.265 374.498C250.265 362.082 257.715 355.13 269.634 355.626C282.049 355.626 288.506 363.076 288.506 374.995C288.506 387.41 281.056 393.37 270.13 394.363Z" fill="#FFC263"/>
<path d="M148.457 73.0452C160.872 74.0385 167.825 80.4946 167.329 92.9103C166.832 105.326 159.879 111.782 147.464 111.285C136.041 110.789 129.585 104.333 129.088 92.9103C129.088 80.4946 136.041 74.0385 148.457 73.0452Z" fill="#FFC263"/>
<path d="M167.826 495.676C166.336 508.588 159.383 515.541 146.967 514.548C134.552 514.051 128.096 506.105 129.089 493.69C130.082 482.267 137.035 475.811 148.457 476.308C161.37 476.804 166.832 484.75 167.826 495.676Z" fill="#FFC263"/>
<path d="M-12.4503 515.044C-25.3626 514.05 -32.3154 507.594 -32.3154 495.179C-31.8188 482.763 -24.3694 476.307 -12.4503 476.803C-1.02791 477.3 5.42827 484.253 5.42827 495.675C6.42153 508.091 -1.02791 514.05 -12.4503 515.044Z" fill="#FFC263"/>
<path d="M6.42145 93.4079C4.93157 105.824 -1.52446 112.28 -13.9401 111.783C-26.3558 111.287 -32.3154 103.34 -31.8188 91.4214C-30.8255 79.999 -23.8728 74.0394 -12.4503 74.0394C-0.0346413 74.0394 5.92483 80.9923 6.42145 93.4079Z" fill="#FFC263"/>
<path d="M309.86 352.15C298.934 350.164 291.982 344.204 292.975 333.279C293.968 322.85 300.921 316.393 311.847 317.387C321.283 318.38 327.739 324.836 327.242 334.768C326.249 345.694 319.296 350.661 309.86 352.15Z" fill="#FFC263"/>
<path d="M107.733 35.3022C117.169 35.7989 124.122 40.7651 125.115 50.6976C126.109 61.6234 119.652 68.5762 109.223 69.0728C98.794 69.5695 91.8413 63.1133 91.8413 52.1875C91.3446 42.255 97.3042 36.7921 107.733 35.3022Z" fill="#FFC263"/>
<path d="M327.243 253.322C326.25 263.751 320.787 270.704 310.358 271.2C299.928 271.2 292.976 264.744 292.976 253.818C292.976 243.886 299.432 237.43 308.868 236.933C319.297 235.94 325.256 242.893 327.243 253.322Z" fill="#FFC263"/>
<path d="M44.6615 535.902C43.6682 546.331 38.2053 553.284 27.7762 553.284C17.347 553.284 10.8909 546.828 10.8909 535.902C10.8909 526.466 17.3469 520.01 26.7829 519.514C36.7154 518.52 42.675 525.473 44.6615 535.902Z" fill="#FFC263"/>
<path d="M44.6623 52.1875C43.669 61.6235 38.7027 68.5762 29.2668 69.0728C18.341 70.0661 11.3883 63.61 10.8917 52.6842C10.3951 42.255 17.3478 35.3022 27.777 35.3022C37.7095 35.3022 43.1724 41.7584 44.6623 52.1875Z" fill="#FFC263"/>
<path d="M108.23 553.285C97.8012 551.795 90.8484 546.332 91.345 535.903C91.8417 525.473 98.2979 519.017 109.224 519.514C118.66 520.011 125.116 526.467 125.116 535.903C125.116 546.332 118.66 551.795 108.23 553.285Z" fill="#FFC263"/>
<path d="M269.138 470.844C259.205 469.851 253.743 464.885 254.239 454.456C254.736 445.02 260.199 440.053 269.634 440.053C280.064 440.053 285.03 446.013 285.03 456.442C284.533 465.878 278.574 470.348 269.138 470.844Z" fill="#FFC263"/>
<path d="M227.421 77.0185C238.346 77.5151 244.306 82.4813 243.809 92.9105C243.809 102.346 238.347 107.313 229.407 107.809C219.475 107.809 213.515 102.346 213.515 92.4139C214.012 82.978 219.475 78.5083 227.421 77.0185Z" fill="#FFC263"/>
<path d="M229.407 480.28C238.843 481.273 244.306 485.742 244.306 495.178C244.306 505.608 238.843 511.07 228.911 511.07C219.475 511.07 214.012 505.608 214.012 496.172C213.515 486.239 219.475 481.273 229.407 480.28Z" fill="#FFC263"/>
<path d="M268.144 117.246C279.07 117.742 285.029 122.709 284.532 133.138C284.532 142.574 279.07 148.037 270.13 148.037C259.701 148.037 254.238 142.574 254.238 132.641C254.238 123.205 259.701 118.736 268.144 117.246Z" fill="#FFC263"/>
<path d="M203.086 51.6909C202.092 60.1336 198.12 65.5965 189.677 66.0931C180.241 66.5898 174.778 61.1268 174.778 51.6909C174.778 43.2482 180.241 38.282 188.684 37.7854C197.126 38.282 201.596 43.7449 203.086 51.6909Z" fill="#FFC263"/>
<path d="M309.861 429.624C300.921 428.134 294.962 423.664 295.459 414.228C295.955 405.785 301.418 400.819 309.861 400.819C319.297 400.819 324.759 406.779 324.263 415.718C323.766 424.657 318.303 428.63 309.861 429.624Z" fill="#FFC263"/>
<path d="M308.868 187.767C300.425 185.78 294.466 180.814 295.459 171.875C296.452 163.929 301.915 158.466 310.358 159.459C319.297 159.956 324.76 165.915 323.767 175.351C323.27 182.801 317.311 187.27 308.868 187.767Z" fill="#FFC263"/>
<path d="M187.691 521.5C197.623 522.99 203.086 527.459 202.59 536.895C202.093 545.338 196.63 550.304 188.684 550.304C179.745 550.304 174.282 544.345 174.282 535.405C174.779 526.963 180.738 522.99 187.691 521.5Z" fill="#FFC263"/>
<path d="M363 294.045C362.007 301.991 358.034 306.957 350.088 306.957C342.142 306.957 337.672 301.991 337.672 294.542C337.672 286.596 342.638 282.126 350.088 282.126C358.034 281.629 362.007 286.596 363 294.045Z" fill="#FFC263"/>
<path d="M159.383 575.136C158.886 582.586 155.906 586.559 149.45 587.552C142.497 588.049 137.531 584.572 137.531 577.123C137.531 569.673 141.504 565.7 148.953 565.7C155.41 565.7 158.389 570.17 159.383 575.136Z" fill="#FFC263"/>
<path d="M55.5874 576.626C56.5807 567.687 61.5468 563.714 68.9962 564.21C76.9423 564.707 80.9154 570.17 79.9221 577.619C79.4255 584.572 74.4592 588.545 67.5064 588.048C59.5604 588.545 56.084 583.579 55.5874 576.626Z" fill="#FFC263"/>
<path d="M79.9225 11.9605C78.9292 20.8998 73.9629 24.3762 66.0168 23.8796C59.0641 23.383 55.0912 18.4167 55.5878 11.4639C56.0844 3.51788 61.0506 -0.455156 68.9966 0.041471C76.446 0.538098 79.4259 5.50434 79.9225 11.9605Z" fill="#FFC263"/>
<path d="M159.383 11.4639C157.893 19.4099 153.92 23.3829 146.967 22.3896C141.008 21.893 137.035 17.4234 137.532 11.4639C138.028 4.51108 142.498 0.538029 149.451 1.03466C155.907 2.02791 158.887 6.49759 159.383 11.4639Z" fill="#FFC263"/>
<path d="M361.51 212.598C361.013 220.544 357.537 224.517 350.087 224.517C343.631 224.517 339.658 221.041 339.161 214.585C338.665 207.632 342.141 203.162 349.094 202.666C356.543 202.169 360.02 206.639 361.51 212.598Z" fill="#FFC263"/>
<path d="M361.014 374.499C360.517 381.452 357.041 385.921 349.591 385.921C343.135 385.921 339.162 382.445 338.666 375.989C338.169 369.036 341.645 364.07 348.598 364.07C356.544 363.573 360.517 367.546 361.014 374.499Z" fill="#FFC263"/>
</g>
</svg>
