<svg width="335" height="589" viewBox="0 0 335 589" fill="none" xmlns="http://www.w3.org/2000/svg">
<g opacity="0.2">
<path d="M272.152 396.351C260.232 404.297 248.314 405.786 236.394 396.847C224.475 387.908 223.482 375.492 227.952 360.593C212.556 364.07 198.651 363.573 189.712 350.164C181.765 338.742 183.752 326.823 191.698 315.897C192.691 314.904 193.685 313.91 194.678 312.917C200.141 308.944 206.597 304.971 213.053 306.461C224.475 308.944 222.489 303.481 222.985 295.039C223.979 283.616 222.489 279.147 210.073 281.133C205.603 281.63 200.141 277.657 195.174 275.67C193.684 274.18 192.691 273.187 191.201 271.697C184.249 260.275 182.262 248.852 190.705 237.43C199.644 225.014 212.556 223.524 228.448 227.994C224.475 212.598 224.972 199.189 238.878 189.754C250.3 182.304 261.722 183.794 272.648 191.74C273.641 192.733 274.635 193.727 275.628 194.72C278.111 200.183 282.581 206.142 282.084 211.109C279.601 224.517 286.057 222.034 295.493 223.028C306.916 224.021 307.412 221.041 307.412 211.109C307.412 205.646 311.385 200.183 313.868 194.72C314.862 193.727 315.855 192.733 316.848 191.74C328.767 183.297 340.686 182.304 352.605 191.243C364.524 200.183 365.518 212.598 361.048 227.497C375.947 225.014 389.852 224.517 398.792 237.926C406.738 249.845 404.751 260.771 397.302 272.194C396.308 273.187 394.818 274.677 393.825 275.67C388.362 277.657 382.403 282.126 377.437 281.63C366.014 280.14 366.014 284.609 366.511 294.045C366.511 303.481 366.014 307.951 377.437 306.461C382.899 305.964 388.362 310.434 393.825 312.42C394.818 313.414 396.308 314.904 397.302 315.897C405.248 327.816 406.738 339.735 397.798 351.157C388.859 362.58 376.94 364.566 361.544 359.6C364.524 374.996 364.028 389.398 349.625 398.337C338.7 405.29 327.774 403.303 316.848 396.847C315.358 395.357 313.868 393.867 312.378 392.378C306.915 383.935 305.426 374.996 306.915 365.56C291.023 363.573 278.111 364.07 279.601 385.425C279.601 387.908 277.118 390.888 275.628 393.371C274.138 394.364 273.145 395.357 272.152 396.351ZM347.639 348.178C338.7 342.715 357.571 325.333 337.21 325.333C326.781 325.333 324.297 328.809 324.297 338.245C324.794 358.607 342.176 339.238 347.639 348.178ZM240.367 348.178C245.83 340.728 266.192 358.607 262.716 333.775C259.736 313.91 247.32 329.802 240.367 324.34C243.347 333.279 240.367 339.735 240.367 348.178ZM348.632 240.41C324.794 242.893 325.291 242.893 324.794 248.356C322.311 267.724 337.21 261.268 348.632 264.248C344.659 255.805 347.142 248.356 348.632 240.41ZM239.871 239.416C241.361 248.356 241.857 255.805 240.864 264.248C247.32 258.288 260.729 273.187 262.716 253.322C265.695 229.484 245.334 248.356 239.871 239.416ZM284.567 292.555C285.064 297.522 281.091 304.971 291.52 302.985C296.983 301.991 303.439 305.964 302.942 294.542C302.446 287.093 301.949 284.113 293.507 284.609C287.05 285.603 282.084 284.609 284.567 292.555Z" fill="#FFC263"/>
<path d="M274.635 195.216C273.642 194.223 272.649 193.229 271.655 192.236C271.655 191.243 271.655 189.753 271.159 188.76C265.199 175.351 264.702 162.438 277.118 152.506C287.051 144.56 298.97 144.56 308.902 152.506C321.318 162.438 321.318 174.854 315.359 188.263C314.862 189.256 314.862 190.746 314.862 191.74C313.869 192.733 312.875 193.726 311.882 194.719C299.963 200.182 287.547 200.182 274.635 195.216Z" fill="#FFC263"/>
<path d="M311.882 392.874C313.372 394.363 314.862 395.853 316.352 397.343C317.345 400.323 317.842 403.303 318.835 406.282C322.311 418.698 320.325 429.624 309.399 437.073C299.466 444.026 288.541 444.026 278.608 436.577C267.682 428.631 266.192 417.705 269.669 405.289C270.662 402.309 271.655 399.33 272.152 396.847C273.145 395.853 274.138 394.86 275.132 393.867C287.051 387.907 299.466 388.404 311.882 392.874Z" fill="#FFC263"/>
<path d="M194.678 313.414C193.685 314.407 192.691 315.4 191.698 316.393C176.799 320.863 161.9 325.333 150.975 309.441C144.519 300.005 144.518 290.072 150.478 280.636C160.907 264.248 175.806 268.221 190.705 272.69C192.195 274.18 193.188 275.173 194.678 276.663C200.141 288.582 199.644 300.998 194.678 313.414Z" fill="#FFC263"/>
<path d="M172.826 399.827C159.417 399.827 147.002 387.411 147.499 374.002C147.995 361.09 159.418 349.667 172.33 349.667C185.739 349.667 198.154 362.083 197.658 375.492C197.161 388.404 185.739 399.827 172.826 399.827Z" fill="#FFC263"/>
<path d="M238.381 414.228C238.878 427.637 226.959 440.053 213.053 440.053C200.141 440.053 188.718 428.63 188.222 415.718C187.725 402.309 199.644 389.894 213.55 389.894C225.965 390.39 237.885 401.316 238.381 414.228Z" fill="#FFC263"/>
<path d="M171.833 188.76C184.745 188.264 196.664 199.189 197.657 212.102C198.651 225.511 187.228 238.423 173.323 238.92C159.914 239.416 147.498 227.497 147.498 214.088C147.995 200.679 158.92 189.257 171.833 188.76Z" fill="#FFC263"/>
<path d="M213.053 148.036C226.462 148.036 238.381 160.452 237.885 173.861C237.388 186.773 225.469 197.699 212.557 197.699C199.148 197.699 187.229 185.283 187.725 171.875C188.718 159.459 200.638 148.036 213.053 148.036Z" fill="#FFC263"/>
<path d="M229.939 453.959C231.925 439.556 239.871 432.107 254.274 432.107C268.179 432.107 278.112 444.026 276.125 457.435C274.139 471.837 265.199 478.79 251.294 477.797C236.892 477.3 230.435 467.864 229.939 453.959Z" fill="#FFC263"/>
<path d="M155.444 334.272C154.451 348.674 147.001 357.117 132.599 357.117C118.197 357.117 109.754 349.171 109.754 334.768C109.754 320.366 117.7 311.924 132.103 311.924C146.505 311.427 153.954 319.87 155.444 334.272Z" fill="#FFC263"/>
<path d="M357.572 455.448C356.579 469.354 349.129 478.293 334.727 478.79C320.325 479.286 311.882 471.34 310.889 456.938C309.896 443.033 320.325 432.107 334.231 432.603C348.633 432.603 356.082 441.046 357.572 455.448Z" fill="#FFC263"/>
<path d="M133.593 230.973C147.995 232.959 155.941 240.409 155.444 254.811C154.948 269.213 146.008 277.159 131.606 276.663C117.204 276.166 109.258 267.227 109.755 252.824C110.251 238.422 119.19 231.47 133.593 230.973Z" fill="#FFC263"/>
<path d="M276.621 132.145C275.131 147.54 267.682 155.983 252.783 155.486C238.381 155.486 229.938 146.547 230.435 132.145C230.435 117.742 239.374 109.3 253.776 109.796C268.675 110.293 275.628 119.232 276.621 132.145Z" fill="#FFC263"/>
<path d="M357.572 133.138C356.082 147.54 348.633 155.486 334.231 155.983C320.325 156.479 309.896 145.554 310.889 131.648C311.882 117.246 320.325 109.3 334.727 109.796C349.129 110.293 356.579 119.232 357.572 133.138Z" fill="#FFC263"/>
<path d="M173.323 476.804C160.411 475.314 151.968 468.858 151.968 455.945C151.471 443.033 159.914 435.087 172.33 434.59C185.242 434.094 193.188 442.536 193.685 454.952C193.685 467.864 185.739 474.817 173.323 476.804Z" fill="#FFC263"/>
<path d="M294.003 517.031C281.587 515.541 273.145 509.085 272.648 496.173C272.151 483.26 280.594 475.314 293.01 474.818C305.922 474.321 313.868 482.764 314.365 495.179C314.861 508.092 306.915 515.044 294.003 517.031Z" fill="#FFC263"/>
<path d="M113.231 294.045C111.245 306.957 104.292 315.4 91.3798 314.903C78.9641 314.406 71.0181 306.46 71.0181 293.548C71.5147 281.132 79.4608 273.186 92.3731 273.186C105.285 273.683 111.742 282.622 113.231 294.045Z" fill="#FFC263"/>
<path d="M293.506 71.5564C305.922 73.0463 314.365 79.5025 314.365 92.4148C314.365 105.327 306.419 113.273 294.003 113.77C281.091 114.266 273.145 105.824 272.648 93.408C272.648 80.4957 281.091 73.5429 293.506 71.5564Z" fill="#FFC263"/>
<path d="M193.685 132.641C192.195 145.056 185.739 153.499 172.826 153.499C160.411 153.996 151.968 146.05 151.471 133.137C150.975 120.722 158.921 112.279 171.833 111.782C185.242 111.782 191.698 120.225 193.685 132.641Z" fill="#FFC263"/>
<path d="M132.103 393.867C145.015 395.853 153.458 402.806 152.961 415.222C152.465 427.638 144.519 435.584 132.103 435.584C119.687 435.087 111.741 427.141 111.741 414.725C111.741 402.31 120.681 395.853 132.103 393.867Z" fill="#FFC263"/>
<path d="M153.458 172.867C151.968 185.283 145.512 193.726 132.6 194.222C120.184 194.719 111.741 186.773 111.741 173.861C111.245 161.445 119.191 153.002 132.103 152.506C144.519 152.009 151.471 160.452 153.458 172.867Z" fill="#FFC263"/>
<path d="M91.3791 393.867C78.9634 392.377 72.5073 385.921 73.0039 373.505C73.5006 361.089 81.4465 355.13 93.3655 355.626C104.788 356.62 110.747 363.572 110.747 374.995C110.747 387.907 103.298 393.37 91.3791 393.867Z" fill="#FFC263"/>
<path d="M93.3655 232.959C80.4532 231.966 73.0039 226.007 73.0039 213.591C73.0039 201.175 79.9567 194.719 92.3723 194.719C103.795 194.719 110.251 201.175 110.747 212.598C111.741 225.013 104.788 231.469 93.3655 232.959Z" fill="#FFC263"/>
<path d="M213.55 515.044C200.637 514.051 193.685 507.594 193.685 495.179C194.181 482.763 201.631 476.307 213.55 476.804C224.972 477.3 231.428 484.253 231.428 495.675C232.422 508.091 224.972 514.051 213.55 515.044Z" fill="#FFC263"/>
<path d="M232.421 93.4078C230.932 105.823 224.476 112.28 212.06 111.783C199.644 111.286 193.685 103.34 194.181 91.4213C195.174 79.9988 202.127 74.0393 213.55 74.0393C225.965 74.0393 231.925 80.9921 232.421 93.4078Z" fill="#FFC263"/>
<path d="M51.6492 351.654C41.22 350.661 34.7639 344.701 34.7639 334.272C34.7639 324.339 41.22 318.38 51.1526 318.38C61.5817 318.38 68.5346 324.836 68.038 335.762C68.038 344.701 62.0784 350.164 51.6492 351.654Z" fill="#FFC263"/>
<path d="M333.733 35.3022C343.169 35.7989 350.122 40.7651 351.115 50.6976C352.109 61.6234 345.652 68.5762 335.223 69.0728C324.794 69.5695 317.841 63.1133 317.841 52.1875C317.345 42.255 323.304 36.7921 333.733 35.3022Z" fill="#FFC263"/>
<path d="M51.1526 236.932C60.5885 237.429 67.0448 242.395 68.038 251.831C69.0313 262.757 63.0717 269.71 52.1459 270.206C41.7167 270.703 34.7639 264.247 34.7639 253.818C35.2605 243.885 41.22 238.422 51.1526 236.932Z" fill="#FFC263"/>
<path d="M270.661 535.902C269.668 546.331 264.205 553.284 253.776 553.284C243.347 553.284 236.891 546.828 236.891 535.902C236.891 526.466 243.347 520.01 252.783 519.514C262.715 518.52 268.675 525.473 270.661 535.902Z" fill="#FFC263"/>
<path d="M270.662 52.1875C269.669 61.6235 264.703 68.5762 255.267 69.0728C244.341 70.0661 237.388 63.61 236.892 52.6842C236.395 42.255 243.348 35.3022 253.777 35.3022C263.71 35.3022 269.172 41.7584 270.662 52.1875Z" fill="#FFC263"/>
<path d="M334.23 553.285C323.801 551.795 316.848 546.332 317.345 535.903C317.842 525.474 324.298 519.017 335.224 519.514C344.66 520.011 351.116 526.467 351.116 535.903C351.116 546.332 344.66 551.795 334.23 553.285Z" fill="#FFC263"/>
<path d="M147.498 92.9106C146.505 101.85 142.036 107.313 132.6 107.313C122.17 107.313 117.204 101.353 117.701 90.9241C118.197 81.4882 124.157 77.0186 133.593 77.0186C142.532 78.0118 147.002 83.9713 147.498 92.9106Z" fill="#FFC263"/>
<path d="M92.8695 440.549C101.809 441.543 107.272 446.509 107.272 455.945C107.272 466.374 100.815 471.34 90.8829 470.844C81.4469 470.347 76.9774 463.891 77.474 454.952C77.474 445.019 83.4336 440.549 92.8695 440.549Z" fill="#FFC263"/>
<path d="M187.228 52.1879C186.235 60.1339 181.765 66.0934 173.323 66.0934C164.383 66.0934 158.424 60.1339 158.92 51.1946C159.417 43.2486 164.88 37.7856 173.323 38.2823C181.765 38.7789 185.738 44.2418 187.228 52.1879Z" fill="#FFC263"/>
<path d="M132.599 480.777C142.035 481.273 147.498 486.24 147.498 495.676C147.498 506.105 142.035 511.568 131.606 511.071C122.17 510.574 117.204 505.112 117.204 495.676C117.7 486.24 123.163 481.273 132.599 480.777Z" fill="#FFC263"/>
<path d="M50.656 400.819C59.5953 401.813 65.5548 406.282 65.5548 414.228C66.0514 423.168 60.0918 429.127 51.1525 429.127C42.7098 429.127 37.7437 423.168 37.7437 415.222C37.7437 406.779 43.7032 402.806 50.656 400.819Z" fill="#FFC263"/>
<path d="M92.8691 148.036C82.9366 147.043 77.4736 142.076 77.4736 132.64C77.4736 122.211 83.4331 117.245 93.8623 117.742C103.298 118.238 107.768 124.198 107.271 133.634C106.775 143.07 100.815 147.539 92.8691 148.036Z" fill="#FFC263"/>
<path d="M187.228 536.895C185.739 544.841 181.269 550.304 172.826 550.304C164.383 550.304 158.921 544.841 158.921 536.399C158.921 526.963 164.88 521.5 173.819 521.997C182.262 522.493 186.235 528.453 187.228 536.895Z" fill="#FFC263"/>
<path d="M66.0516 173.861C64.5617 182.304 60.0921 187.767 51.6494 187.27C43.2067 186.773 37.7439 181.311 38.2405 172.868C38.7371 164.425 44.2001 159.459 52.6427 159.459C60.5888 159.956 65.0583 165.418 66.0516 173.861Z" fill="#FFC263"/>
<path d="M281.587 576.626C282.581 567.687 287.547 563.714 294.996 564.21C302.942 564.707 306.915 570.17 305.922 577.619C305.425 584.572 300.459 588.545 293.506 588.048C285.56 588.545 282.084 583.579 281.587 576.626Z" fill="#FFC263"/>
<path d="M223.979 576.625C222.986 583.578 219.51 587.551 212.557 587.551C206.597 587.055 202.624 583.082 202.624 577.122C202.624 570.169 207.094 565.7 214.047 566.196C220.006 566.196 223.483 570.169 223.979 576.625Z" fill="#FFC263"/>
<path d="M223.979 11.96C222.986 18.4161 220.006 22.3892 213.55 22.3892C206.1 22.3892 202.127 17.9195 202.624 10.9667C203.12 5.0072 207.59 1.03421 213.55 1.53084C220.006 1.53084 222.986 6.00044 223.979 11.96Z" fill="#FFC263"/>
<path d="M305.922 11.9605C304.929 20.8998 299.963 24.3762 292.017 23.8796C285.064 23.383 281.091 18.4167 281.588 11.4639C282.084 3.51788 287.051 -0.455156 294.997 0.041471C302.446 0.538098 305.426 5.50434 305.922 11.9605Z" fill="#FFC263"/>
<path d="M22.3485 213.591C21.3552 219.551 18.3754 224.021 11.9192 224.021C4.46984 224.021 0.496835 219.551 0.993462 212.598C1.49009 206.639 5.46309 202.666 11.9192 202.666C18.3754 203.162 21.3552 207.135 22.3485 213.591Z" fill="#FFC263"/>
<path d="M23.3415 294.541C22.8448 301.991 18.8718 306.46 10.9258 306.46C3.973 305.964 0 301.991 0 295.038C0 287.092 4.46965 282.622 12.4157 283.119C19.3685 282.622 22.8448 287.092 23.3415 294.541Z" fill="#FFC263"/>
<path d="M22.3479 374.994C21.3546 380.954 17.8782 385.424 11.9187 385.424C4.96589 385.424 0.496258 380.954 0.992886 373.505C1.48951 367.545 5.95917 363.572 12.4153 364.069C18.3749 364.565 21.8512 369.035 22.3479 374.994Z" fill="#FFC263"/>
</g>
</svg>
