<svg width="223" height="409" viewBox="0 0 223 409" fill="none" xmlns="http://www.w3.org/2000/svg">
<g opacity="0.2">
<path d="M15.5727 125.123C12.3506 132.641 9.66561 140.696 7.51758 148.214L260.448 401.145C268.503 398.997 276.022 396.312 283.54 393.09L15.5727 125.123Z" fill="#6B9BA5"/>
<path d="M32.7574 92.3655C28.4614 98.8096 24.7023 105.254 21.4802 112.235L296.428 387.183C303.409 383.961 309.853 380.202 316.297 375.906L32.7574 92.3655Z" fill="#6B9BA5"/>
<path d="M55.3125 64.4409C49.9424 69.811 45.6463 75.7181 40.8132 81.6252L327.575 368.387C333.482 364.091 338.853 359.258 344.76 353.888L55.3125 64.4409Z" fill="#6B9BA5"/>
<path d="M164.324 404.904C176.139 407.052 187.953 408.663 199.767 408.663L0 208.896C0.537008 220.71 1.61109 232.524 3.75912 244.339L164.324 404.904Z" fill="#6B9BA5"/>
<path d="M3.75912 163.25C2.1481 172.379 0.537008 181.509 0 190.638L217.488 408.126C226.617 407.589 235.746 406.515 244.876 404.367L3.75912 163.25Z" fill="#6B9BA5"/>
<path d="M112.234 21.4802C105.253 24.7023 98.8091 28.4614 92.365 32.7574L375.905 316.298C380.201 309.853 383.96 303.409 387.182 296.428L112.234 21.4802Z" fill="#6B9BA5"/>
<path d="M244.876 3.75908C233.061 1.61105 221.247 0 209.433 0L409.2 199.767C408.663 187.953 407.589 176.139 405.441 164.324L244.876 3.75908Z" fill="#6B9BA5"/>
<path d="M10.7402 270.652C20.4064 299.65 37.0536 326.501 59.608 349.592C82.6993 372.683 109.55 388.794 138.548 398.46L10.7402 270.652Z" fill="#6B9BA5"/>
<path d="M148.214 7.51807C140.159 9.6661 132.641 12.3511 125.123 15.5732L393.09 283.54C396.312 276.022 398.997 267.967 401.145 260.449L148.214 7.51807Z" fill="#6B9BA5"/>
<path d="M191.175 0C182.046 0.537008 172.916 1.61105 163.787 3.75908L405.441 245.413C407.052 236.283 408.663 227.154 409.2 218.025L191.175 0Z" fill="#6B9BA5"/>
<path d="M81.6252 40.8127C75.7181 45.1088 70.348 49.9419 64.4409 55.3119L353.888 344.759C359.258 339.389 363.554 333.482 368.387 327.575L81.6252 40.8127Z" fill="#6B9BA5"/>
</g>
</svg>
