<svg width="452" height="452" viewBox="0 0 452 452" fill="none" xmlns="http://www.w3.org/2000/svg">
<path d="M235.057 21.5595C230.341 26.2791 222.195 26.2791 217.05 21.5595C212.334 16.84 212.334 8.68818 217.05 3.53963C221.766 -1.17988 229.912 -1.17988 235.057 3.53963C239.773 8.68818 239.773 16.411 235.057 21.5595ZM288.221 56.7413C283.505 52.0218 275.359 52.0218 270.214 56.7413C265.498 61.4608 265.498 69.6127 270.214 74.7613C274.93 79.4808 283.076 79.4808 288.221 74.7613C292.937 70.0418 292.937 61.8899 288.221 56.7413ZM341.385 110.372C336.669 105.653 328.523 105.653 323.378 110.372C318.662 115.092 318.662 123.243 323.378 128.392C328.094 133.112 336.24 133.112 341.385 128.392C346.53 123.243 346.53 115.092 341.385 110.372ZM394.978 163.574C390.261 158.854 382.115 158.854 376.97 163.574C372.254 168.293 372.254 176.445 376.97 181.594C381.687 186.313 389.833 186.313 394.978 181.594C399.694 176.445 399.694 168.722 394.978 163.574ZM448.141 217.205C443.425 212.485 435.279 212.485 430.134 217.205C425.418 221.924 425.418 230.076 430.134 235.224C434.85 239.944 442.996 239.944 448.141 235.224C453.286 230.076 453.286 221.924 448.141 217.205ZM181.465 56.7413C176.748 52.0218 168.602 52.0218 163.457 56.7413C158.741 61.4608 158.741 69.6127 163.457 74.7613C168.174 79.4808 176.32 79.4808 181.465 74.7613C186.609 70.0418 186.609 61.8899 181.465 56.7413ZM235.057 110.372C230.341 105.653 222.195 105.653 217.05 110.372C212.334 115.092 212.334 123.243 217.05 128.392C221.766 133.112 229.912 133.112 235.057 128.392C239.773 123.243 239.773 115.092 235.057 110.372ZM288.221 163.574C283.505 158.854 275.359 158.854 270.214 163.574C265.498 168.293 265.498 176.445 270.214 181.594C274.93 186.313 283.076 186.313 288.221 181.594C292.937 176.445 292.937 168.722 288.221 163.574ZM341.385 217.205C336.669 212.485 328.523 212.485 323.378 217.205C318.662 221.924 318.662 230.076 323.378 235.224C328.094 239.944 336.24 239.944 341.385 235.224C346.53 230.076 346.53 221.924 341.385 217.205ZM394.978 270.406C390.261 265.687 382.115 265.687 376.97 270.406C372.254 275.126 372.254 283.278 376.97 288.426C381.687 293.146 389.833 293.146 394.978 288.426C399.694 283.278 399.694 275.126 394.978 270.406ZM128.301 110.372C123.585 105.653 115.438 105.653 110.294 110.372C105.577 115.092 105.577 123.243 110.294 128.392C115.01 133.112 123.156 133.112 128.301 128.392C133.017 123.243 133.017 115.092 128.301 110.372ZM181.465 163.574C176.748 158.854 168.602 158.854 163.457 163.574C158.741 168.293 158.741 176.445 163.457 181.594C168.174 186.313 176.32 186.313 181.465 181.594C186.609 176.445 186.609 168.722 181.465 163.574ZM235.057 217.205C230.341 212.485 222.195 212.485 217.05 217.205C212.334 221.924 212.334 230.076 217.05 235.224C221.766 239.944 229.912 239.944 235.057 235.224C239.773 230.076 239.773 221.924 235.057 217.205ZM288.221 270.406C283.505 265.687 275.359 265.687 270.214 270.406C265.498 275.126 265.498 283.278 270.214 288.426C274.93 293.146 283.076 293.146 288.221 288.426C292.937 283.278 292.937 275.126 288.221 270.406ZM341.385 323.608C336.669 318.888 328.523 318.888 323.378 323.608C318.662 328.327 318.662 336.479 323.378 341.628C328.094 346.347 336.24 346.347 341.385 341.628C346.53 336.479 346.53 328.757 341.385 323.608ZM74.7081 163.574C69.9919 158.854 61.8459 158.854 56.701 163.574C51.9848 168.293 51.9848 176.445 56.701 181.594C61.4171 186.313 69.5632 186.313 74.7081 181.594C79.853 176.445 79.853 168.722 74.7081 163.574ZM128.301 217.205C123.585 212.485 115.438 212.485 110.294 217.205C105.577 221.924 105.577 230.076 110.294 235.224C115.01 239.944 123.156 239.944 128.301 235.224C133.017 230.076 133.017 221.924 128.301 217.205ZM181.465 270.406C176.748 265.687 168.602 265.687 163.457 270.406C158.741 275.126 158.741 283.278 163.457 288.426C168.174 293.146 176.32 293.146 181.465 288.426C186.609 283.278 186.609 275.126 181.465 270.406ZM235.057 323.608C230.341 318.888 222.195 318.888 217.05 323.608C212.334 328.327 212.334 336.479 217.05 341.628C221.766 346.347 229.912 346.347 235.057 341.628C239.773 336.479 239.773 328.757 235.057 323.608ZM288.221 377.239C283.505 372.519 275.359 372.519 270.214 377.239C265.498 381.958 265.498 390.11 270.214 395.259C274.93 399.978 283.076 399.978 288.221 395.259C292.937 390.11 292.937 381.958 288.221 377.239ZM21.5442 217.205C16.8281 212.485 8.682 212.485 3.53711 217.205C-1.17904 221.924 -1.17904 230.076 3.53711 235.224C8.25326 239.944 16.3993 239.944 21.5442 235.224C26.2604 230.076 26.2604 221.924 21.5442 217.205ZM74.7081 270.406C69.9919 265.687 61.8459 265.687 56.701 270.406C51.9848 275.126 51.9848 283.278 56.701 288.426C61.4171 293.146 69.5632 293.146 74.7081 288.426C79.853 283.278 79.853 275.126 74.7081 270.406ZM128.301 323.608C123.585 318.888 115.438 318.888 110.294 323.608C105.577 328.327 105.577 336.479 110.294 341.628C115.01 346.347 123.156 346.347 128.301 341.628C133.017 336.479 133.017 328.757 128.301 323.608ZM181.465 377.239C176.748 372.519 168.602 372.519 163.457 377.239C158.741 381.958 158.741 390.11 163.457 395.259C168.174 399.978 176.32 399.978 181.465 395.259C186.609 390.11 186.609 381.958 181.465 377.239ZM235.057 430.44C230.341 425.721 222.195 425.721 217.05 430.44C212.334 435.16 212.334 443.312 217.05 448.46C221.766 453.18 229.912 453.18 235.057 448.46C239.773 443.312 239.773 435.589 235.057 430.44Z" fill="#244579" fill-opacity="0.1"/>
</svg>
